<svg width="18" height="11" viewBox="0 0 18 11" fill="none" xmlns="http://www.w3.org/2000/svg">
<path d="M17.3664 2.06591L9.36645 10.0659C9.29215 10.1403 9.20392 10.1993 9.1068 10.2396C9.00968 10.2798 8.90558 10.3005 8.80044 10.3005C8.69531 10.3005 8.59121 10.2798 8.49409 10.2396C8.39697 10.1993 8.30874 10.1403 8.23444 10.0659L0.234445 2.06591C0.0843323 1.9158 0 1.7122 0 1.49991C0 1.28762 0.0843323 1.08402 0.234445 0.933907C0.384557 0.783795 0.588154 0.699463 0.800445 0.699463C1.01274 0.699463 1.21633 0.783795 1.36644 0.933907L8.80044 8.36891L16.2344 0.933907C16.3088 0.859579 16.397 0.800619 16.4941 0.760393C16.5912 0.720167 16.6953 0.699463 16.8004 0.699463C16.9056 0.699463 17.0096 0.720167 17.1068 0.760393C17.2039 0.800619 17.2921 0.859579 17.3664 0.933907C17.4408 1.00824 17.4997 1.09648 17.54 1.19359C17.5802 1.29071 17.6009 1.39479 17.6009 1.49991C17.6009 1.60502 17.5802 1.70911 17.54 1.80622C17.4997 1.90334 17.4408 1.99158 17.3664 2.06591Z" fill="#4E616B"/>
</svg>
