<svg width="18" height="11" viewBox="0 0 18 11" fill="none" xmlns="http://www.w3.org/2000/svg">
<path d="M17.3664 8.93409L9.36645 0.934092C9.29215 0.859711 9.20392 0.800703 9.1068 0.760444C9.00968 0.720184 8.90558 0.699464 8.80044 0.699464C8.69531 0.699464 8.59121 0.720184 8.49409 0.760444C8.39697 0.800703 8.30874 0.859711 8.23444 0.934092L0.234445 8.93409C0.0843323 9.0842 0 9.2878 0 9.50009C0 9.71238 0.0843323 9.91598 0.234445 10.0661C0.384557 10.2162 0.588154 10.3005 0.800445 10.3005C1.01274 10.3005 1.21633 10.2162 1.36644 10.0661L8.80044 2.63109L16.2344 10.0661C16.3088 10.1404 16.397 10.1994 16.4941 10.2396C16.5912 10.2798 16.6953 10.3005 16.8004 10.3005C16.9056 10.3005 17.0096 10.2798 17.1068 10.2396C17.2039 10.1994 17.2921 10.1404 17.3664 10.0661C17.4408 9.99176 17.4997 9.90352 17.54 9.80641C17.5802 9.70929 17.6009 9.60521 17.6009 9.50009C17.6009 9.39498 17.5802 9.29089 17.54 9.19378C17.4997 9.09666 17.4408 9.00842 17.3664 8.93409Z" fill="#4E616B"/>
</svg>
